<mxfile host="app.diagrams.net" agent="Mozilla/5.0 (Macintosh; Intel Mac OS X 10_15_7) AppleWebKit/537.36 (KHTML, like Gecko) Chrome/137.0.0.0 Safari/537.36" version="27.1.6">
  <diagram name="第 1 页" id="8zK_9K2P1iQv1fW5dUpA">
    <mxGraphModel dx="1139" dy="755" grid="1" gridSize="10" guides="1" tooltips="1" connect="1" arrows="1" fold="1" page="1" pageScale="1" pageWidth="827" pageHeight="1169" math="0" shadow="0">
      <root>
        <mxCell id="0" />
        <mxCell id="1" parent="0" />
        <mxCell id="gyHVxSlpPpS5MHr8xKRd-1" value="" style="swimlane;startSize=0;dashed=1;fontStyle=1;strokeWidth=3;" vertex="1" parent="1">
          <mxGeometry x="60" y="114" width="380" height="336" as="geometry" />
        </mxCell>
        <mxCell id="gyHVxSlpPpS5MHr8xKRd-2" value="AT already developed" style="rounded=0;whiteSpace=wrap;html=1;fillColor=#f8cecc;strokeColor=#b85450;shadow=0;glass=0;sketch=1;curveFitting=1;jiggle=2;fontStyle=1" vertex="1" parent="gyHVxSlpPpS5MHr8xKRd-1">
          <mxGeometry x="30" y="10" width="130" height="60" as="geometry" />
        </mxCell>
        <mxCell id="gyHVxSlpPpS5MHr8xKRd-9" style="edgeStyle=orthogonalEdgeStyle;rounded=0;orthogonalLoop=1;jettySize=auto;html=1;exitX=0.5;exitY=1;exitDx=0;exitDy=0;entryX=0.5;entryY=0;entryDx=0;entryDy=0;sketch=1;curveFitting=1;jiggle=2;" edge="1" parent="gyHVxSlpPpS5MHr8xKRd-1" source="gyHVxSlpPpS5MHr8xKRd-3" target="gyHVxSlpPpS5MHr8xKRd-4">
          <mxGeometry relative="1" as="geometry" />
        </mxCell>
        <mxCell id="gyHVxSlpPpS5MHr8xKRd-3" value="Deposit / Withdraw" style="ellipse;whiteSpace=wrap;html=1;fillColor=#d5e8d4;strokeColor=#82b366;shadow=0;sketch=1;curveFitting=1;jiggle=2;fontStyle=1" vertex="1" parent="gyHVxSlpPpS5MHr8xKRd-1">
          <mxGeometry x="234" y="50" width="120" height="80" as="geometry" />
        </mxCell>
        <mxCell id="gyHVxSlpPpS5MHr8xKRd-10" style="edgeStyle=orthogonalEdgeStyle;rounded=0;orthogonalLoop=1;jettySize=auto;html=1;exitX=0.5;exitY=1;exitDx=0;exitDy=0;entryX=0.5;entryY=0;entryDx=0;entryDy=0;sketch=1;curveFitting=1;jiggle=2;" edge="1" parent="gyHVxSlpPpS5MHr8xKRd-1" source="gyHVxSlpPpS5MHr8xKRd-4" target="gyHVxSlpPpS5MHr8xKRd-6">
          <mxGeometry relative="1" as="geometry" />
        </mxCell>
        <mxCell id="gyHVxSlpPpS5MHr8xKRd-11" style="edgeStyle=orthogonalEdgeStyle;rounded=0;orthogonalLoop=1;jettySize=auto;html=1;exitX=0.5;exitY=1;exitDx=0;exitDy=0;entryX=0.5;entryY=0;entryDx=0;entryDy=0;sketch=1;curveFitting=1;jiggle=2;" edge="1" parent="gyHVxSlpPpS5MHr8xKRd-1" source="gyHVxSlpPpS5MHr8xKRd-4" target="gyHVxSlpPpS5MHr8xKRd-5">
          <mxGeometry relative="1" as="geometry" />
        </mxCell>
        <mxCell id="gyHVxSlpPpS5MHr8xKRd-4" value="Payment Aggregator" style="rounded=0;whiteSpace=wrap;html=1;sketch=1;curveFitting=1;jiggle=2;fillColor=#dae8fc;strokeColor=#6c8ebf;fontStyle=1" vertex="1" parent="gyHVxSlpPpS5MHr8xKRd-1">
          <mxGeometry x="234" y="160" width="120" height="60" as="geometry" />
        </mxCell>
        <mxCell id="gyHVxSlpPpS5MHr8xKRd-5" value="Settlement &amp;amp; Reconciliation" style="rounded=0;whiteSpace=wrap;html=1;sketch=1;curveFitting=1;jiggle=2;fillColor=#dae8fc;strokeColor=#6c8ebf;fontStyle=1" vertex="1" parent="gyHVxSlpPpS5MHr8xKRd-1">
          <mxGeometry x="40" y="262" width="170" height="60" as="geometry" />
        </mxCell>
        <mxCell id="gyHVxSlpPpS5MHr8xKRd-6" value="Reporting &amp;amp; Analytics" style="rounded=0;whiteSpace=wrap;html=1;sketch=1;curveFitting=1;jiggle=2;fillColor=#dae8fc;strokeColor=#6c8ebf;fontStyle=1" vertex="1" parent="gyHVxSlpPpS5MHr8xKRd-1">
          <mxGeometry x="234" y="262" width="120" height="60" as="geometry" />
        </mxCell>
        <mxCell id="gyHVxSlpPpS5MHr8xKRd-17" style="edgeStyle=orthogonalEdgeStyle;rounded=0;orthogonalLoop=1;jettySize=auto;html=1;exitX=0.5;exitY=1;exitDx=0;exitDy=0;entryX=0.5;entryY=0;entryDx=0;entryDy=0;sketch=1;curveFitting=1;jiggle=2;" edge="1" parent="1" source="gyHVxSlpPpS5MHr8xKRd-12" target="gyHVxSlpPpS5MHr8xKRd-15">
          <mxGeometry relative="1" as="geometry" />
        </mxCell>
        <mxCell id="gyHVxSlpPpS5MHr8xKRd-18" style="edgeStyle=orthogonalEdgeStyle;rounded=0;orthogonalLoop=1;jettySize=auto;html=1;exitX=0.5;exitY=1;exitDx=0;exitDy=0;entryX=0.5;entryY=0;entryDx=0;entryDy=0;sketch=1;curveFitting=1;jiggle=2;" edge="1" parent="1" source="gyHVxSlpPpS5MHr8xKRd-12" target="gyHVxSlpPpS5MHr8xKRd-16">
          <mxGeometry relative="1" as="geometry" />
        </mxCell>
        <mxCell id="gyHVxSlpPpS5MHr8xKRd-20" style="edgeStyle=orthogonalEdgeStyle;rounded=0;orthogonalLoop=1;jettySize=auto;html=1;exitX=0.5;exitY=1;exitDx=0;exitDy=0;entryX=0.5;entryY=0;entryDx=0;entryDy=0;sketch=1;curveFitting=1;jiggle=2;" edge="1" parent="1" source="gyHVxSlpPpS5MHr8xKRd-12" target="gyHVxSlpPpS5MHr8xKRd-19">
          <mxGeometry relative="1" as="geometry" />
        </mxCell>
        <mxCell id="gyHVxSlpPpS5MHr8xKRd-12" value="Routing by Region" style="rhombus;whiteSpace=wrap;html=1;fillColor=#fff2cc;strokeColor=#d6b656;sketch=1;curveFitting=1;jiggle=2;fontStyle=1" vertex="1" parent="1">
          <mxGeometry x="641" y="243" width="120" height="110" as="geometry" />
        </mxCell>
        <mxCell id="gyHVxSlpPpS5MHr8xKRd-14" style="edgeStyle=orthogonalEdgeStyle;rounded=0;orthogonalLoop=1;jettySize=auto;html=1;exitX=1.025;exitY=0.4;exitDx=0;exitDy=0;exitPerimeter=0;sketch=1;curveFitting=1;jiggle=2;" edge="1" parent="1" source="gyHVxSlpPpS5MHr8xKRd-4" target="gyHVxSlpPpS5MHr8xKRd-12">
          <mxGeometry relative="1" as="geometry" />
        </mxCell>
        <mxCell id="gyHVxSlpPpS5MHr8xKRd-23" style="edgeStyle=orthogonalEdgeStyle;rounded=0;orthogonalLoop=1;jettySize=auto;html=1;exitX=0.5;exitY=1;exitDx=0;exitDy=0;entryX=0.5;entryY=0;entryDx=0;entryDy=0;sketch=1;curveFitting=1;jiggle=2;" edge="1" parent="1" source="gyHVxSlpPpS5MHr8xKRd-15" target="gyHVxSlpPpS5MHr8xKRd-21">
          <mxGeometry relative="1" as="geometry" />
        </mxCell>
        <mxCell id="gyHVxSlpPpS5MHr8xKRd-15" value="Region A&lt;br&gt;(Credit Card / Wallet)" style="rounded=0;whiteSpace=wrap;html=1;sketch=1;curveFitting=1;jiggle=2;fillColor=#dae8fc;strokeColor=#6c8ebf;fontStyle=1" vertex="1" parent="1">
          <mxGeometry x="461" y="414" width="140" height="60" as="geometry" />
        </mxCell>
        <mxCell id="gyHVxSlpPpS5MHr8xKRd-24" style="edgeStyle=orthogonalEdgeStyle;rounded=0;orthogonalLoop=1;jettySize=auto;html=1;exitX=0.5;exitY=1;exitDx=0;exitDy=0;entryX=0.5;entryY=0;entryDx=0;entryDy=0;sketch=1;curveFitting=1;jiggle=2;" edge="1" parent="1" source="gyHVxSlpPpS5MHr8xKRd-16" target="gyHVxSlpPpS5MHr8xKRd-21">
          <mxGeometry relative="1" as="geometry">
            <mxPoint x="711" y="554" as="targetPoint" />
          </mxGeometry>
        </mxCell>
        <mxCell id="gyHVxSlpPpS5MHr8xKRd-16" value="Region B&lt;br&gt;(Local Bank / Wallet)" style="rounded=0;whiteSpace=wrap;html=1;sketch=1;curveFitting=1;jiggle=2;fillColor=#dae8fc;strokeColor=#6c8ebf;fontStyle=1" vertex="1" parent="1">
          <mxGeometry x="631" y="414" width="140" height="60" as="geometry" />
        </mxCell>
        <mxCell id="gyHVxSlpPpS5MHr8xKRd-25" style="edgeStyle=orthogonalEdgeStyle;rounded=0;orthogonalLoop=1;jettySize=auto;html=1;exitX=0.5;exitY=1;exitDx=0;exitDy=0;entryX=0.5;entryY=0;entryDx=0;entryDy=0;sketch=1;curveFitting=1;jiggle=2;" edge="1" parent="1" source="gyHVxSlpPpS5MHr8xKRd-19" target="gyHVxSlpPpS5MHr8xKRd-21">
          <mxGeometry relative="1" as="geometry" />
        </mxCell>
        <mxCell id="gyHVxSlpPpS5MHr8xKRd-19" value="Region C&lt;br&gt;(Crypto)" style="rounded=0;whiteSpace=wrap;html=1;sketch=1;curveFitting=1;jiggle=2;fillColor=#dae8fc;strokeColor=#6c8ebf;fontStyle=1" vertex="1" parent="1">
          <mxGeometry x="791" y="414" width="140" height="60" as="geometry" />
        </mxCell>
        <mxCell id="gyHVxSlpPpS5MHr8xKRd-21" value="Provider API" style="rounded=0;whiteSpace=wrap;html=1;fillColor=#f8cecc;strokeColor=#b85450;shadow=0;glass=0;sketch=1;curveFitting=1;jiggle=2;fontStyle=1" vertex="1" parent="1">
          <mxGeometry x="636" y="540" width="130" height="60" as="geometry" />
        </mxCell>
        <mxCell id="gyHVxSlpPpS5MHr8xKRd-30" style="edgeStyle=orthogonalEdgeStyle;rounded=0;orthogonalLoop=1;jettySize=auto;html=1;exitX=0.5;exitY=1;exitDx=0;exitDy=0;entryX=0.5;entryY=0;entryDx=0;entryDy=0;sketch=1;curveFitting=1;jiggle=2;fontStyle=1" edge="1" parent="1" source="gyHVxSlpPpS5MHr8xKRd-27" target="gyHVxSlpPpS5MHr8xKRd-29">
          <mxGeometry relative="1" as="geometry" />
        </mxCell>
        <mxCell id="gyHVxSlpPpS5MHr8xKRd-27" value="B2C Site" style="ellipse;whiteSpace=wrap;html=1;sketch=1;curveFitting=1;jiggle=2;fillColor=#d5e8d4;strokeColor=#82b366;fontStyle=1" vertex="1" parent="1">
          <mxGeometry x="497.5" y="650" width="120" height="80" as="geometry" />
        </mxCell>
        <mxCell id="gyHVxSlpPpS5MHr8xKRd-31" style="edgeStyle=orthogonalEdgeStyle;rounded=0;orthogonalLoop=1;jettySize=auto;html=1;exitX=0.5;exitY=1;exitDx=0;exitDy=0;entryX=0.5;entryY=0;entryDx=0;entryDy=0;sketch=1;curveFitting=1;jiggle=2;fontStyle=1" edge="1" parent="1" source="gyHVxSlpPpS5MHr8xKRd-28" target="gyHVxSlpPpS5MHr8xKRd-29">
          <mxGeometry relative="1" as="geometry" />
        </mxCell>
        <mxCell id="gyHVxSlpPpS5MHr8xKRd-28" value="Credit Site" style="ellipse;whiteSpace=wrap;html=1;fillColor=#d5e8d4;strokeColor=#82b366;sketch=1;curveFitting=1;jiggle=2;fontStyle=1" vertex="1" parent="1">
          <mxGeometry x="666.5" y="650" width="120" height="80" as="geometry" />
        </mxCell>
        <mxCell id="gyHVxSlpPpS5MHr8xKRd-32" value="" style="swimlane;startSize=0;" vertex="1" parent="1">
          <mxGeometry x="100" y="770" width="720" height="340" as="geometry" />
        </mxCell>
        <mxCell id="gyHVxSlpPpS5MHr8xKRd-39" style="edgeStyle=orthogonalEdgeStyle;rounded=0;orthogonalLoop=1;jettySize=auto;html=1;exitX=0.5;exitY=1;exitDx=0;exitDy=0;entryX=0.5;entryY=0;entryDx=0;entryDy=0;" edge="1" parent="gyHVxSlpPpS5MHr8xKRd-32" source="gyHVxSlpPpS5MHr8xKRd-29" target="gyHVxSlpPpS5MHr8xKRd-37">
          <mxGeometry relative="1" as="geometry" />
        </mxCell>
        <mxCell id="gyHVxSlpPpS5MHr8xKRd-40" style="edgeStyle=orthogonalEdgeStyle;rounded=0;orthogonalLoop=1;jettySize=auto;html=1;exitX=0.5;exitY=1;exitDx=0;exitDy=0;entryX=0.5;entryY=0;entryDx=0;entryDy=0;" edge="1" parent="gyHVxSlpPpS5MHr8xKRd-32" source="gyHVxSlpPpS5MHr8xKRd-29" target="gyHVxSlpPpS5MHr8xKRd-38">
          <mxGeometry relative="1" as="geometry" />
        </mxCell>
        <mxCell id="gyHVxSlpPpS5MHr8xKRd-29" value="Payment API" style="rounded=0;whiteSpace=wrap;html=1;fillColor=#f8cecc;strokeColor=#b85450;shadow=0;glass=0;sketch=1;curveFitting=1;jiggle=2;fontStyle=1" vertex="1" parent="gyHVxSlpPpS5MHr8xKRd-32">
          <mxGeometry x="477" y="20" width="130" height="60" as="geometry" />
        </mxCell>
        <mxCell id="gyHVxSlpPpS5MHr8xKRd-36" value="" style="edgeStyle=orthogonalEdgeStyle;rounded=0;orthogonalLoop=1;jettySize=auto;html=1;" edge="1" parent="gyHVxSlpPpS5MHr8xKRd-32" source="gyHVxSlpPpS5MHr8xKRd-26" target="gyHVxSlpPpS5MHr8xKRd-35">
          <mxGeometry relative="1" as="geometry" />
        </mxCell>
        <mxCell id="gyHVxSlpPpS5MHr8xKRd-26" value="Payment Platform" style="rounded=0;whiteSpace=wrap;html=1;sketch=1;curveFitting=1;jiggle=2;fontStyle=1;shadow=0;glass=0;strokeColor=#b85450;align=center;verticalAlign=middle;fontFamily=Helvetica;fontSize=12;fontColor=default;fillColor=#f8cecc;" vertex="1" parent="gyHVxSlpPpS5MHr8xKRd-32">
          <mxGeometry x="22" y="20" width="120" height="60" as="geometry" />
        </mxCell>
        <mxCell id="gyHVxSlpPpS5MHr8xKRd-43" value="" style="edgeStyle=orthogonalEdgeStyle;rounded=0;orthogonalLoop=1;jettySize=auto;html=1;" edge="1" parent="gyHVxSlpPpS5MHr8xKRd-32" source="gyHVxSlpPpS5MHr8xKRd-35" target="gyHVxSlpPpS5MHr8xKRd-41">
          <mxGeometry relative="1" as="geometry" />
        </mxCell>
        <mxCell id="gyHVxSlpPpS5MHr8xKRd-35" value="Deposit / Withdraw" style="rounded=0;whiteSpace=wrap;html=1;sketch=1;curveFitting=1;jiggle=2;fillColor=#dae8fc;strokeColor=#6c8ebf;fontStyle=1" vertex="1" parent="gyHVxSlpPpS5MHr8xKRd-32">
          <mxGeometry x="22" y="120" width="120" height="60" as="geometry" />
        </mxCell>
        <mxCell id="gyHVxSlpPpS5MHr8xKRd-37" value="Get User Balance" style="rounded=0;whiteSpace=wrap;html=1;sketch=1;curveFitting=1;jiggle=2;fillColor=#dae8fc;strokeColor=#6c8ebf;fontStyle=1" vertex="1" parent="gyHVxSlpPpS5MHr8xKRd-32">
          <mxGeometry x="410" y="120" width="120" height="60" as="geometry" />
        </mxCell>
        <mxCell id="gyHVxSlpPpS5MHr8xKRd-38" value="Update User Balance" style="rounded=0;whiteSpace=wrap;html=1;sketch=1;curveFitting=1;jiggle=2;fillColor=#dae8fc;strokeColor=#6c8ebf;fontStyle=1" vertex="1" parent="gyHVxSlpPpS5MHr8xKRd-32">
          <mxGeometry x="550" y="120" width="140" height="60" as="geometry" />
        </mxCell>
        <mxCell id="gyHVxSlpPpS5MHr8xKRd-48" style="edgeStyle=orthogonalEdgeStyle;rounded=0;orthogonalLoop=1;jettySize=auto;html=1;exitX=0.5;exitY=1;exitDx=0;exitDy=0;entryX=0.5;entryY=0;entryDx=0;entryDy=0;sketch=1;curveFitting=1;jiggle=2;" edge="1" parent="gyHVxSlpPpS5MHr8xKRd-32" source="gyHVxSlpPpS5MHr8xKRd-41" target="gyHVxSlpPpS5MHr8xKRd-47">
          <mxGeometry relative="1" as="geometry" />
        </mxCell>
        <mxCell id="gyHVxSlpPpS5MHr8xKRd-49" style="edgeStyle=orthogonalEdgeStyle;rounded=0;orthogonalLoop=1;jettySize=auto;html=1;exitX=0.5;exitY=1;exitDx=0;exitDy=0;entryX=0.5;entryY=0;entryDx=0;entryDy=0;sketch=1;curveFitting=1;jiggle=2;" edge="1" parent="gyHVxSlpPpS5MHr8xKRd-32" source="gyHVxSlpPpS5MHr8xKRd-41" target="gyHVxSlpPpS5MHr8xKRd-44">
          <mxGeometry relative="1" as="geometry" />
        </mxCell>
        <mxCell id="gyHVxSlpPpS5MHr8xKRd-50" style="edgeStyle=orthogonalEdgeStyle;rounded=0;orthogonalLoop=1;jettySize=auto;html=1;exitX=0.5;exitY=1;exitDx=0;exitDy=0;entryX=0.5;entryY=0;entryDx=0;entryDy=0;sketch=1;curveFitting=1;jiggle=2;" edge="1" parent="gyHVxSlpPpS5MHr8xKRd-32" source="gyHVxSlpPpS5MHr8xKRd-41" target="gyHVxSlpPpS5MHr8xKRd-45">
          <mxGeometry relative="1" as="geometry" />
        </mxCell>
        <mxCell id="gyHVxSlpPpS5MHr8xKRd-51" style="edgeStyle=orthogonalEdgeStyle;rounded=0;orthogonalLoop=1;jettySize=auto;html=1;exitX=0.5;exitY=1;exitDx=0;exitDy=0;entryX=0.5;entryY=0;entryDx=0;entryDy=0;sketch=1;curveFitting=1;jiggle=2;" edge="1" parent="gyHVxSlpPpS5MHr8xKRd-32" source="gyHVxSlpPpS5MHr8xKRd-41" target="gyHVxSlpPpS5MHr8xKRd-46">
          <mxGeometry relative="1" as="geometry" />
        </mxCell>
        <mxCell id="gyHVxSlpPpS5MHr8xKRd-41" value="3rd Payment Processing" style="rounded=0;whiteSpace=wrap;html=1;sketch=1;curveFitting=1;jiggle=2;fillColor=#dae8fc;strokeColor=#6c8ebf;fontStyle=1" vertex="1" parent="gyHVxSlpPpS5MHr8xKRd-32">
          <mxGeometry x="180" y="120" width="120" height="60" as="geometry" />
        </mxCell>
        <mxCell id="gyHVxSlpPpS5MHr8xKRd-44" value="Local Back" style="ellipse;whiteSpace=wrap;html=1;aspect=fixed;fillColor=#e1d5e7;strokeColor=#9673a6;sketch=1;curveFitting=1;jiggle=2;fontStyle=1" vertex="1" parent="gyHVxSlpPpS5MHr8xKRd-32">
          <mxGeometry x="160" y="220" width="80" height="80" as="geometry" />
        </mxCell>
        <mxCell id="gyHVxSlpPpS5MHr8xKRd-45" value="Crypto" style="ellipse;whiteSpace=wrap;html=1;aspect=fixed;fillColor=#e1d5e7;strokeColor=#9673a6;sketch=1;curveFitting=1;jiggle=2;fontStyle=1" vertex="1" parent="gyHVxSlpPpS5MHr8xKRd-32">
          <mxGeometry x="260" y="220" width="80" height="80" as="geometry" />
        </mxCell>
        <mxCell id="gyHVxSlpPpS5MHr8xKRd-46" value="Credit Card" style="ellipse;whiteSpace=wrap;html=1;aspect=fixed;fillColor=#e1d5e7;strokeColor=#9673a6;sketch=1;curveFitting=1;jiggle=2;fontStyle=1" vertex="1" parent="gyHVxSlpPpS5MHr8xKRd-32">
          <mxGeometry x="360" y="220" width="80" height="80" as="geometry" />
        </mxCell>
        <mxCell id="gyHVxSlpPpS5MHr8xKRd-47" value="Wallet" style="ellipse;whiteSpace=wrap;html=1;aspect=fixed;fillColor=#e1d5e7;strokeColor=#9673a6;sketch=1;curveFitting=1;jiggle=2;fontStyle=1" vertex="1" parent="gyHVxSlpPpS5MHr8xKRd-32">
          <mxGeometry x="62" y="220" width="80" height="80" as="geometry" />
        </mxCell>
        <mxCell id="gyHVxSlpPpS5MHr8xKRd-33" value="Client" style="ellipse;whiteSpace=wrap;html=1;fillColor=#d5e8d4;strokeColor=#82b366;sketch=1;curveFitting=1;jiggle=2;fontStyle=1" vertex="1" parent="1">
          <mxGeometry x="122" y="650" width="120" height="80" as="geometry" />
        </mxCell>
        <mxCell id="gyHVxSlpPpS5MHr8xKRd-34" style="edgeStyle=orthogonalEdgeStyle;rounded=0;orthogonalLoop=1;jettySize=auto;html=1;exitX=0.5;exitY=1;exitDx=0;exitDy=0;entryX=0.5;entryY=0;entryDx=0;entryDy=0;" edge="1" parent="1" source="gyHVxSlpPpS5MHr8xKRd-33" target="gyHVxSlpPpS5MHr8xKRd-26">
          <mxGeometry relative="1" as="geometry" />
        </mxCell>
        <mxCell id="gyHVxSlpPpS5MHr8xKRd-58" style="edgeStyle=orthogonalEdgeStyle;rounded=0;orthogonalLoop=1;jettySize=auto;html=1;exitX=1;exitY=0.5;exitDx=0;exitDy=0;entryX=0;entryY=0.5;entryDx=0;entryDy=0;fillColor=#dae8fc;strokeColor=#6c8ebf;strokeWidth=3;" edge="1" parent="1" source="gyHVxSlpPpS5MHr8xKRd-52" target="gyHVxSlpPpS5MHr8xKRd-54">
          <mxGeometry relative="1" as="geometry" />
        </mxCell>
        <mxCell id="gyHVxSlpPpS5MHr8xKRd-60" style="edgeStyle=orthogonalEdgeStyle;rounded=0;orthogonalLoop=1;jettySize=auto;html=1;exitX=0.5;exitY=0;exitDx=0;exitDy=0;entryX=0.5;entryY=0;entryDx=0;entryDy=0;strokeWidth=3;dashed=1;" edge="1" parent="1" source="gyHVxSlpPpS5MHr8xKRd-52" target="gyHVxSlpPpS5MHr8xKRd-53">
          <mxGeometry relative="1" as="geometry" />
        </mxCell>
        <mxCell id="gyHVxSlpPpS5MHr8xKRd-52" value="Client" style="ellipse;whiteSpace=wrap;html=1;fillColor=#d5e8d4;strokeColor=#82b366;sketch=1;curveFitting=1;jiggle=2;fontStyle=1" vertex="1" parent="1">
          <mxGeometry x="60" y="1210" width="120" height="80" as="geometry" />
        </mxCell>
        <mxCell id="gyHVxSlpPpS5MHr8xKRd-61" style="edgeStyle=orthogonalEdgeStyle;rounded=0;orthogonalLoop=1;jettySize=auto;html=1;exitX=0.5;exitY=1;exitDx=0;exitDy=0;entryX=0.5;entryY=1;entryDx=0;entryDy=0;dashed=1;strokeColor=default;strokeWidth=3;align=center;verticalAlign=middle;fontFamily=Helvetica;fontSize=11;fontColor=default;labelBackgroundColor=default;endArrow=classic;" edge="1" parent="1" source="gyHVxSlpPpS5MHr8xKRd-53" target="gyHVxSlpPpS5MHr8xKRd-52">
          <mxGeometry relative="1" as="geometry" />
        </mxCell>
        <mxCell id="gyHVxSlpPpS5MHr8xKRd-63" style="edgeStyle=orthogonalEdgeStyle;rounded=0;orthogonalLoop=1;jettySize=auto;html=1;exitX=0;exitY=0.5;exitDx=0;exitDy=0;entryX=1;entryY=0.5;entryDx=0;entryDy=0;strokeColor=#6c8ebf;strokeWidth=3;align=center;verticalAlign=middle;fontFamily=Helvetica;fontSize=11;fontColor=default;labelBackgroundColor=default;endArrow=classic;fillColor=#dae8fc;" edge="1" parent="1" source="gyHVxSlpPpS5MHr8xKRd-53" target="gyHVxSlpPpS5MHr8xKRd-54">
          <mxGeometry relative="1" as="geometry" />
        </mxCell>
        <mxCell id="gyHVxSlpPpS5MHr8xKRd-53" value="B2C Site" style="ellipse;whiteSpace=wrap;html=1;sketch=1;curveFitting=1;jiggle=2;fillColor=#d5e8d4;strokeColor=#82b366;fontStyle=1" vertex="1" parent="1">
          <mxGeometry x="590" y="1210" width="120" height="80" as="geometry" />
        </mxCell>
        <mxCell id="gyHVxSlpPpS5MHr8xKRd-59" style="edgeStyle=orthogonalEdgeStyle;rounded=0;orthogonalLoop=1;jettySize=auto;html=1;exitX=0;exitY=0.5;exitDx=0;exitDy=0;entryX=1;entryY=0.5;entryDx=0;entryDy=0;strokeColor=#6c8ebf;strokeWidth=3;align=center;verticalAlign=middle;fontFamily=Helvetica;fontSize=11;fontColor=default;labelBackgroundColor=default;endArrow=classic;fillColor=#dae8fc;" edge="1" parent="1" source="gyHVxSlpPpS5MHr8xKRd-54" target="gyHVxSlpPpS5MHr8xKRd-52">
          <mxGeometry relative="1" as="geometry" />
        </mxCell>
        <mxCell id="gyHVxSlpPpS5MHr8xKRd-62" style="edgeStyle=orthogonalEdgeStyle;rounded=0;orthogonalLoop=1;jettySize=auto;html=1;exitX=1;exitY=0.5;exitDx=0;exitDy=0;entryX=0;entryY=0.5;entryDx=0;entryDy=0;strokeColor=#6c8ebf;strokeWidth=3;align=center;verticalAlign=middle;fontFamily=Helvetica;fontSize=11;fontColor=default;labelBackgroundColor=default;endArrow=classic;fillColor=#dae8fc;" edge="1" parent="1" source="gyHVxSlpPpS5MHr8xKRd-54" target="gyHVxSlpPpS5MHr8xKRd-53">
          <mxGeometry relative="1" as="geometry" />
        </mxCell>
        <mxCell id="gyHVxSlpPpS5MHr8xKRd-64" value="Only Data Record" style="edgeLabel;html=1;align=center;verticalAlign=middle;resizable=0;points=[];fontStyle=1;fontSize=12;" vertex="1" connectable="0" parent="gyHVxSlpPpS5MHr8xKRd-62">
          <mxGeometry x="0.1795" y="2" relative="1" as="geometry">
            <mxPoint x="-9" y="2" as="offset" />
          </mxGeometry>
        </mxCell>
        <mxCell id="gyHVxSlpPpS5MHr8xKRd-54" value="Payment Platform" style="rounded=0;whiteSpace=wrap;html=1;sketch=1;curveFitting=1;jiggle=2;fontStyle=1;shadow=0;glass=0;strokeColor=#b85450;align=center;verticalAlign=middle;fontFamily=Helvetica;fontSize=12;fontColor=default;fillColor=#f8cecc;" vertex="1" parent="1">
          <mxGeometry x="273.5" y="1220" width="120" height="60" as="geometry" />
        </mxCell>
      </root>
    </mxGraphModel>
  </diagram>
</mxfile>
